<?xml version="1.0" encoding="utf-8"?>
<!-- Generator: Adobe Illustrator 20.0.0, SVG Export Plug-In . SVG Version: 6.00 Build 0)  -->
<svg version="1.1" id="Layer_1" xmlns="http://www.w3.org/2000/svg" xmlns:xlink="http://www.w3.org/1999/xlink" x="0px" y="0px"
	 viewBox="0 0 56.3 55.6" style="enable-background:new 0 0 56.3 55.6;" xml:space="preserve">
<style type="text/css">
	.st0{fill-rule:evenodd;clip-rule:evenodd;fill:#EC1C24;}
	.st1{fill-rule:evenodd;clip-rule:evenodd;fill:none;stroke:#EC1C24;stroke-width:2.4375;stroke-miterlimit:10;}
	.st2{fill:#EC1C24;}
	.st3{fill:none;stroke:#EC1C24;stroke-width:1.7419;stroke-miterlimit:10;}
	.st4{opacity:0.46;}
	.st5{opacity:0.15;fill:#EC1C24;}
	.st6{fill:#FFFFFF;}
	.st7{fill:#6D6E70;}
	.st8{fill:none;stroke:#EC1C24;stroke-width:2;stroke-miterlimit:10;}
	.st9{fill:none;stroke:#EC1C24;stroke-width:2;stroke-linecap:round;stroke-linejoin:round;stroke-miterlimit:10;}
	.st10{fill:none;stroke:#EC1C24;stroke-width:2.3004;stroke-linecap:round;stroke-linejoin:round;stroke-miterlimit:10;}
	.st11{fill:none;stroke:#EC1C24;stroke-width:2.3004;stroke-miterlimit:10;}
	.st12{fill:#808184;}
	.st13{fill:#FFDD15;stroke:#EC1C24;stroke-width:2.3004;stroke-miterlimit:10;}
	.st14{fill:#231F20;}
	.st15{fill:none;stroke:#EC1C24;stroke-width:2.9425;stroke-miterlimit:10;}
	.st16{fill:none;stroke:#EC1C24;stroke-width:2.9425;stroke-linecap:round;stroke-miterlimit:10;}
	.st17{fill:#F6921E;stroke:#EC1C24;stroke-width:2;stroke-linecap:round;stroke-linejoin:round;stroke-miterlimit:10;}
	.st18{fill:#F16522;stroke:#EC1C24;stroke-width:2;stroke-linecap:round;stroke-linejoin:round;stroke-miterlimit:10;}
	.st19{fill:#FFFFFF;stroke:#EC1C24;stroke-width:3.531;stroke-linecap:round;stroke-linejoin:round;stroke-miterlimit:10;}
	.st20{fill:none;stroke:#EC1C24;stroke-width:4.7079;stroke-linecap:round;stroke-linejoin:round;stroke-miterlimit:10;}
	.st21{fill:none;stroke:#EC1C24;stroke-width:10.0044;stroke-linecap:round;stroke-linejoin:round;stroke-miterlimit:10;}
	.st22{fill:none;stroke:#EC1C24;stroke-width:2.9425;stroke-linecap:round;stroke-linejoin:round;stroke-miterlimit:10;}
	.st23{fill:none;stroke:#EC1C24;stroke-width:1.4539;stroke-linecap:round;stroke-linejoin:round;stroke-miterlimit:10;}
	.st24{fill:#FFDD15;stroke:#EC1C24;stroke-width:2.354;stroke-miterlimit:10;}
	.st25{fill:#FFDD15;stroke:#EC1C24;stroke-width:2;stroke-miterlimit:10;}
	.st26{fill:none;stroke:#EC1C24;stroke-width:2.2629;stroke-miterlimit:10;}
	.st27{fill:none;stroke:#EC1C24;stroke-width:2.2629;stroke-linecap:round;stroke-linejoin:round;stroke-miterlimit:10;}
	.st28{fill:none;stroke:#EC1C24;stroke-linecap:round;stroke-linejoin:round;stroke-miterlimit:10;}
</style>
<g>
	<path id="XMLID_11345_" class="st2" d="M12.1,13.5c0.6,0,1.2-0.3,1.6-0.7C18.9,7.6,25.7,4.7,33,4.7c7.3,0,14.1,2.9,19.2,8.1
		c0.4,0.5,1,0.7,1.7,0.7c0.6,0,1.2-0.2,1.6-0.7c0.4-0.4,0.7-1,0.7-1.6c0-0.6-0.2-1.2-0.7-1.7C49.6,3.4,41.6,0,33,0
		c-8.6,0-16.6,3.4-22.6,9.5c-0.4,0.4-0.7,1-0.7,1.7c0,0.6,0.3,1.2,0.7,1.6C10.9,13.2,11.5,13.5,12.1,13.5
		C12.1,13.5,12.1,13.5,12.1,13.5z M11.6,10.6c5.7-5.8,13.3-9,21.5-9c8.1,0,15.8,3.2,21.5,9c0.1,0.1,0.2,0.3,0.2,0.6
		c0,0.2-0.1,0.4-0.2,0.5c-0.3,0.3-0.8,0.3-1.1,0C48,6.2,40.7,3.1,33,3.1c-7.7,0-14.9,3-20.3,8.6c-0.1,0.1-0.3,0.2-0.5,0.2
		c-0.2,0-0.4-0.1-0.6-0.2c-0.1-0.1-0.2-0.3-0.2-0.5C11.3,10.9,11.4,10.7,11.6,10.6z"/>
	<path id="XMLID_11342_" class="st2" d="M49.6,17.8c-4.4-4.5-10.3-7-16.6-7c-6.3,0-12.2,2.5-16.6,7c-0.9,0.9-0.9,2.4,0,3.3
		c0.9,0.9,2.4,0.9,3.3,0c3.5-3.6,8.2-5.6,13.3-5.6c5,0,9.7,2,13.3,5.6c0.4,0.5,1,0.7,1.7,0.7c0.6,0,1.2-0.2,1.6-0.7
		C50.5,20.2,50.5,18.8,49.6,17.8z M48.5,20c-0.3,0.3-0.8,0.3-1.1,0c-3.8-3.9-8.9-6.1-14.4-6.1c-5.5,0-10.6,2.2-14.4,6.1
		c-0.3,0.3-0.8,0.3-1.1,0c-0.3-0.3-0.3-0.8,0-1.1c4.1-4.2,9.6-6.6,15.5-6.6c5.9,0,11.4,2.3,15.5,6.6C48.8,19.2,48.8,19.7,48.5,20z"
		/>
	<path id="XMLID_11147_" class="st2" d="M7.5,54.8l0.1,0h18.3l0.1,0c0.6,0,1.2-0.1,1.7-0.2c0,0.1,0,0.1,0,0.2c0.1,0.4,0.5,0.8,1,0.8
		h16.9c5.8,0,10.5-4.6,10.5-10.2c0-5.6-4.7-10.2-10.5-10.2c-0.2-7-5.9-12.7-12.9-12.7c-6.1,0-11.3,4.3-12.5,10.1
		c-1-0.4-2.2-0.7-3.4-0.7c-2.2,0-4.4,0.8-6,2.4c-1.5,1.4-2.5,3.3-2.7,5.4C3.7,39.4,0,42.9,0,47.2C0,51.4,3.3,54.8,7.5,54.8z
		 M32.7,24.6c5.9,0,10.7,4.9,10.7,10.8c0,0.3,0,0.5,0,0.8c0,0.3,0.1,0.6,0.3,0.8c0.2,0.2,0.5,0.3,0.8,0.3c0.3,0,0.6,0,0.9,0
		c4.7,0,8.4,3.6,8.4,8.1c0,4.4-3.8,8-8.4,8.1H31.4c1-1.3,1.5-2.8,1.6-4.4c0.1-0.4,0.1-0.8,0.1-1.2c0-2.7-1.6-5-4-6.2
		c-1-0.7-2.2-1.1-3.5-1.2c-0.1-2.7-1.5-5.1-3.5-6.7C22.9,28.5,27.4,24.6,32.7,24.6z M7.5,41.8c0.2,0,0.5,0,0.7,0l0.7,0.1
		c0.3,0,0.6,0,0.8-0.2c0.2-0.2,0.4-0.5,0.4-0.7l0.1-0.7c0.1-1.7,0.9-3.3,2.1-4.4c1.2-1.2,2.9-1.8,4.5-1.8c3.7,0,6.7,3,6.7,6.8
		c0,0.1,0,0.3,0,0.5l-0.1,0.8c0,0.3,0.1,0.6,0.3,0.8c0.2,0.2,0.5,0.3,0.8,0.3l0.8-0.1c0.2,0,0.4,0,0.6,0c2.8,0,5.1,2.1,5.1,4.8
		c0,2.6-2.3,4.8-5,4.8l-18.3,0l-0.1,0c-3,0-5.4-2.5-5.4-5.4C2.1,44.3,4.5,41.8,7.5,41.8z"/>
	<circle class="st2" cx="32.7" cy="32.9" r="3.5"/>
</g>
</svg>
