<?xml version="1.0" encoding="utf-8"?>
<!-- Generator: Adobe Illustrator 20.0.0, SVG Export Plug-In . SVG Version: 6.00 Build 0)  -->
<svg version="1.1" id="Layer_1" xmlns="http://www.w3.org/2000/svg" xmlns:xlink="http://www.w3.org/1999/xlink" x="0px" y="0px"
	 viewBox="0 0 872.2 299.7" style="enable-background:new 0 0 872.2 299.7;" xml:space="preserve">
<style type="text/css">
	.st0{fill-rule:evenodd;clip-rule:evenodd;fill:#EC1C24;}
	.st1{fill-rule:evenodd;clip-rule:evenodd;fill:none;stroke:#EC1C24;stroke-width:2.4375;stroke-miterlimit:10;}
	.st2{fill:#EC1C24;}
	.st3{fill:none;stroke:#EC1C24;stroke-width:1.7419;stroke-miterlimit:10;}
	.st4{opacity:0.46;}
	.st5{opacity:0.15;fill:#EC1C24;}
	.st6{fill:#FFFFFF;}
	.st7{fill:none;stroke:#EC1C24;stroke-width:2;stroke-miterlimit:10;}
	.st8{fill:none;stroke:#EC1C24;stroke-width:2;stroke-linecap:round;stroke-linejoin:round;stroke-miterlimit:10;}
	.st9{fill:none;stroke:#EC1C24;stroke-width:2.3004;stroke-linecap:round;stroke-linejoin:round;stroke-miterlimit:10;}
	.st10{fill:none;stroke:#EC1C24;stroke-width:2.3004;stroke-miterlimit:10;}
	.st11{fill:#FFDD15;stroke:#EC1C24;stroke-width:2.3004;stroke-miterlimit:10;}
	.st12{fill:#231F20;}
	.st13{fill:none;stroke:#EC1C24;stroke-width:2.9425;stroke-miterlimit:10;}
	.st14{fill:none;stroke:#EC1C24;stroke-width:2.9425;stroke-linecap:round;stroke-miterlimit:10;}
	.st15{fill:#F6921E;stroke:#EC1C24;stroke-width:2;stroke-linecap:round;stroke-linejoin:round;stroke-miterlimit:10;}
	.st16{fill:#F16522;stroke:#EC1C24;stroke-width:2;stroke-linecap:round;stroke-linejoin:round;stroke-miterlimit:10;}
	.st17{fill:#FFFFFF;stroke:#EC1C24;stroke-width:3.531;stroke-linecap:round;stroke-linejoin:round;stroke-miterlimit:10;}
	.st18{fill:none;stroke:#EC1C24;stroke-width:4.7079;stroke-linecap:round;stroke-linejoin:round;stroke-miterlimit:10;}
	.st19{fill:none;stroke:#EC1C24;stroke-width:10.0044;stroke-linecap:round;stroke-linejoin:round;stroke-miterlimit:10;}
	.st20{fill:none;stroke:#EC1C24;stroke-width:2.9425;stroke-linecap:round;stroke-linejoin:round;stroke-miterlimit:10;}
	.st21{fill:none;stroke:#EC1C24;stroke-width:1.4539;stroke-linecap:round;stroke-linejoin:round;stroke-miterlimit:10;}
	.st22{fill:#FFDD15;stroke:#EC1C24;stroke-width:2.354;stroke-miterlimit:10;}
	.st23{fill:#FFDD15;stroke:#EC1C24;stroke-width:2;stroke-miterlimit:10;}
	.st24{fill:none;stroke:#EC1C24;stroke-width:2.2629;stroke-miterlimit:10;}
	.st25{fill:none;stroke:#EC1C24;stroke-width:2.2629;stroke-linecap:round;stroke-linejoin:round;stroke-miterlimit:10;}
	.st26{fill:none;stroke:#EC1C24;stroke-linecap:round;stroke-linejoin:round;stroke-miterlimit:10;}
</style>
<g class="st4">
	<g>
		<path class="st5" d="M759.7,103.8c24.4,76.2-47.5,167.3-160.5,203.4c-113,36.1-224.4,3.6-248.7-72.6c-24.4-76.2,43.4-54,100-159.4
			C506.6-29.2,735.3,27.6,759.7,103.8z"/>
		<path class="st5" d="M523.4,115.8c0,61.1-99.5,180.1-177.3,180.1c-77.9,0-203.6-28.7-203.6-89.9s89.3-95.3,164.7-66.3
			C379.9,167.7,523.4,54.6,523.4,115.8z"/>
		<path class="st5" d="M428.1,73c0,29.6-56,49.7-101.3,49.7c-45.2,0-81.9-24-81.9-53.5c0-29.6,51.2-28,96.5-28
			C386.6,41.1,428.1,43.4,428.1,73z"/>
		<path class="st5" d="M434.8,130.5c-8.4-28.3,39.6-63.5,83-76.4c43.4-12.9,85.4-0.3,93.8,28s-41.2,41.4-84.6,54.3
			C483.6,149.3,443.2,158.9,434.8,130.5z"/>
		<path class="st5" d="M744.1,205.3c13.1,26.5-28.1,69.4-68.6,89.5c-40.5,20.1-84,14.9-97.2-11.5c-13.1-26.5,33.4-47.9,74-68
			C692.8,195.2,731,178.9,744.1,205.3z"/>
		<path class="st5" d="M241.7,221.4c13.1,26.5,3,53.2-37.5,73.3c-40.5,20.1-81.8-24.2-78.5-56.2c3-29.4,25.3,9.3,60.6-17.1
			C222.5,194.2,228.6,194.9,241.7,221.4z"/>
		<path class="st5" d="M640.7,31.7c13.3-22.2,37.8-27.2,71.7-6.8c33.9,20.4,20.7,71.7-4.4,84.3c-23.1,11.6-5.1-23.1-41.2-36.6
			C629.7,58.6,627.3,53.8,640.7,31.7z"/>
		<path class="st5" d="M193.3,150.1c13.3-22.2,37.8-27.2,71.7-6.8c33.9,20.4,20.7,71.7-4.4,84.3c-23.1,11.6-5.1-23.1-41.2-36.6
			C182.3,177,179.9,172.2,193.3,150.1z"/>
	</g>
	<path class="st5" d="M300.2,34.5c6,12.1,1.4,24.3-17.1,33.4c-18.5,9.2-37.3-11-35.8-25.6c1.4-13.4,11.6,4.3,27.7-7.8
		C291.4,22.1,294.2,22.4,300.2,34.5z"/>
</g>
<rect x="144.4" y="291.1" class="st6" width="596.5" height="8.5"/>
<path class="st7" d="M490.9,291.1h-96.6c-1.6,0-2.9-1.3-2.9-2.9l0,0c0-1.6,1.3-2.9,2.9-2.9h96.6c1.6,0,2.9,1.3,2.9,2.9l0,0
	C493.8,289.8,492.5,291.1,490.9,291.1z"/>
<polygon class="st7" points="468.7,285.3 462.5,263.6 422.7,263.6 416.5,285.3 "/>
<line class="st8" x1="144.4" y1="291.1" x2="740.9" y2="291.1"/>
<circle class="st9" cx="443.9" cy="15.4" r="5.4"/>
<path class="st9" d="M443.9,6.5c-5.6,0-10.1,4.5-10.1,10.1v12.7l10.1,7.7l10.1-7.7V16.5C454,11,449.4,6.5,443.9,6.5z"/>
<path class="st9" d="M433.4,55.2c0,5.8,4.7,10.5,10.5,10.5c5.8,0,10.5-4.7,10.5-10.5c0-5.8-4.7-10.5-10.5-10.5v-8.3"/>
<polyline class="st10" points="328.5,96.7 444.6,61.7 569.2,102.5 "/>
<g>
	<path class="st11" d="M571.3,272l-262.9-12.5c-3.4-0.2-6-3-5.8-6.4L310,96.4c0.2-3.4,3-6,6.4-5.8L579.4,103c3.4,0.2,6,3,5.8,6.4
		l-7.4,156.8C577.6,269.6,574.7,272.2,571.3,272z"/>
	<line class="st10" x1="303.6" y1="234.5" x2="578.4" y2="247.6"/>
	<g>
		<g>
			<path class="st12" d="M347.1,173.6l3.8,4.2l-0.2,5.2l-5.1-0.2l0.2-4l-6.4-0.3l-0.8,16.6l6.4,0.3l0.2-4l5.1,0.2l-0.2,5.2l-4.1,3.8
				l-8.8-0.4l-3.8-4.1l0.9-19l4.1-3.8L347.1,173.6z"/>
			<path class="st12" d="M366.7,174.5l3.8,4.2l-0.9,19l-4.1,3.8l-8.8-0.4l-3.8-4.1l0.9-19l4.1-3.8L366.7,174.5z M365.3,179.7
				l-6.4-0.3l-0.8,16.6l6.4,0.3L365.3,179.7z"/>
			<path class="st12" d="M386.2,175.5l5.2,0.2l-1.3,27l-5.8-0.3l-6.1-15.7l-0.7,15.4l-5.2-0.2l1.3-27l5.8,0.3l6.1,15.7L386.2,175.5z
				"/>
			<path class="st12" d="M407,176.5l3.8,4.2l-0.2,5.2l-5.1-0.2l0.2-4l-6.4-0.3l-0.3,5.7l7.5,0.4l2.5,2.7l0,0l1.3,1.4l-0.4,8.1
				l-4.1,3.8l-8.8-0.4l-3.8-4.1l0.2-5.2l5.2,0.2l-0.2,4l6.4,0.3l0.3-5.7l-7.7-0.4l-3.7-4.1l0.4-8.1l4.1-3.8L407,176.5z"/>
			<path class="st12" d="M428.9,177.5l-0.2,5.2l-5-0.2l-1,21.8l-5.2-0.2l1-21.8l-5-0.2l0.2-5.2L428.9,177.5z"/>
			<path class="st12" d="M444.6,178.2l3.8,4.2l-0.4,8.1l-1.5,1.3l1.3,1.4l-0.6,12.1l-5.1-0.2l0.5-10.2l-6.4-0.3l-0.5,10.2l-5.2-0.2
				l1.3-27L444.6,178.2z M443.1,183.3l-6.4-0.3l-0.3,6.4l6.4,0.3L443.1,183.3z"/>
			<path class="st12" d="M462.9,179.1l5.2,0.2l-1.1,23l-4.1,3.8l-8.8-0.4l-3.8-4.1l1.1-23l5.2,0.2l-1,21.8l6.4,0.3L462.9,179.1z"/>
			<path class="st12" d="M483.8,180.1l3.8,4.2l-0.2,5.2l-5.1-0.2l0.2-4l-6.4-0.3l-0.8,16.6l6.4,0.3l0.2-4l5.1,0.2l-0.2,5.2l-4.1,3.8
				l-8.8-0.4l-3.8-4.1l0.9-19l4.1-3.8L483.8,180.1z"/>
			<path class="st12" d="M505.7,181.1l-0.2,5.2l-5-0.2l-1,21.8l-5.2-0.2l1-21.8l-5-0.2l0.2-5.2L505.7,181.1z"/>
			<path class="st12" d="M508.6,181.3l5.2,0.2l-1.3,27l-5.2-0.2L508.6,181.3z"/>
			<path class="st12" d="M529.4,182.3l3.8,4.2l-0.9,19l-4.1,3.8l-8.8-0.4l-3.8-4.1l0.9-19l4.1-3.8L529.4,182.3z M528,187.4l-6.4-0.3
				l-0.8,16.6l6.4,0.3L528,187.4z"/>
			<path class="st12" d="M548.9,183.2l5.2,0.2l-1.3,27l-5.8-0.3l-6.1-15.7l-0.7,15.4l-5.2-0.2l1.3-27l5.8,0.3l6.1,15.7L548.9,183.2z
				"/>
		</g>
		<g>
			<g>
				<path class="st12" d="M391.7,131.4l8,0.4l-1.5,32.2l-6.4,5.8l-13.7-0.6l-5.8-6.4l1.5-32.2l8,0.4l-1.4,30.3l9.9,0.5L391.7,131.4z
					"/>
				<path class="st12" d="M423.8,132.9l8,0.4l-1.8,38.4l-9-0.4l-9.5-24.4l-1.1,23.9l-8-0.4l1.8-38.4l9,0.4l9.6,20.8L423.8,132.9z"/>
				<path class="st12" d="M456.1,134.5l5.8,6.5l-1.2,26.1l-6.4,5.8l-19.8-0.9l1.8-38.4L456.1,134.5z M453.9,142.4l-9.9-0.5
					l-1.1,22.3l9.9,0.5L453.9,142.4z"/>
				<path class="st12" d="M488.1,136l-0.4,8l-13.3-0.6l-0.3,6.3l10.6,0.5l-0.4,8l-10.6-0.5l-0.4,8l13.3,0.6l-0.4,8l-21.3-1l1.8-38.4
					L488.1,136z"/>
				<path class="st12" d="M512.4,137.1l5.8,6.5l-0.4,9.1l-2.3,2.1l2.1,2.2l-0.9,18.7l-8-0.4l0.8-15.9l-9.9-0.5l-0.8,15.9l-8-0.4
					l1.8-38.4L512.4,137.1z M510.1,145.1l-9.9-0.5l-0.3,6.4l9.9,0.5L510.1,145.1z"/>
			</g>
			<g>
				<g>
					<g>
						<path class="st12" d="M356.8,160.2l8,0.4l-0.4,8l-8-0.4L356.8,160.2z M366.3,130.2l-1.3,27.8l-8-0.4l1.3-27.8L366.3,130.2z"/>
					</g>
					<g>
						<path class="st12" d="M345.9,159.7l8,0.4l-0.4,8l-8-0.4L345.9,159.7z M355.4,129.7l-1.3,27.8l-8-0.4l1.3-27.8L355.4,129.7z"/>
					</g>
					<g>
						<path class="st12" d="M334.7,159.1l8,0.4l-0.4,8l-8-0.4L334.7,159.1z M344.2,129.2l-1.3,27.8l-8-0.4l1.3-27.8L344.2,129.2z"/>
					</g>
				</g>
				<g>
					<g>
						<path class="st12" d="M546.6,169.2l8,0.4l-0.4,8l-8-0.4L546.6,169.2z M556.1,139.2l-1.3,27.8l-8-0.4l1.3-27.8L556.1,139.2z"/>
					</g>
					<g>
						<path class="st12" d="M535.8,168.7l8,0.4l-0.4,8l-8-0.4L535.8,168.7z M545.2,138.7l-1.3,27.8l-8-0.4l1.3-27.8L545.2,138.7z"/>
					</g>
					<g>
						<path class="st12" d="M524.5,168.1l8,0.4l-0.4,8l-8-0.4L524.5,168.1z M534,138.2l-1.3,27.8l-8-0.4l1.3-27.8L534,138.2z"/>
					</g>
				</g>
			</g>
		</g>
	</g>
	<g>
		<polygon class="st12" points="329.2,109.6 314.2,108.9 325.4,96.6 340.4,97.3 		"/>
		<polygon class="st12" points="359.2,111 344.2,110.3 355.4,98 370.4,98.8 		"/>
		<polygon class="st12" points="389.2,112.5 374.2,111.8 385.4,99.5 400.4,100.2 		"/>
		<polygon class="st12" points="419.2,113.9 404.2,113.2 415.4,100.9 430.4,101.6 		"/>
		<polygon class="st12" points="449.1,115.3 434.1,114.6 445.3,102.3 460.3,103 		"/>
		<polygon class="st12" points="479.2,116.7 464.2,116 475.4,103.7 490.4,104.4 		"/>
		<polygon class="st12" points="509.2,118.2 494.2,117.4 505.4,105.2 520.4,105.9 		"/>
		<polygon class="st12" points="539.2,119.6 524.2,118.9 535.4,106.6 550.4,107.3 		"/>
		<polygon class="st12" points="569.3,121 554.3,120.3 565.5,108 580.5,108.7 		"/>
	</g>
	<g>
		<polygon class="st12" points="323.4,231.2 308.4,230.4 319.6,218.2 334.6,218.9 		"/>
		<polygon class="st12" points="353.4,232.6 338.4,231.9 349.6,219.6 364.6,220.3 		"/>
		<polygon class="st12" points="383.4,234 368.4,233.3 379.6,221 394.6,221.7 		"/>
		<polygon class="st12" points="413.5,235.4 398.5,234.7 409.7,222.4 424.7,223.1 		"/>
		<polygon class="st12" points="443.4,236.9 428.4,236.1 439.6,223.8 454.6,224.6 		"/>
		<polygon class="st12" points="473.4,238.3 458.4,237.6 469.6,225.3 484.6,226 		"/>
		<polygon class="st12" points="503.4,239.7 488.4,239 499.6,226.7 514.6,227.4 		"/>
		<polygon class="st12" points="533.4,241.1 518.4,240.4 529.6,228.1 544.6,228.8 		"/>
		<polygon class="st12" points="563.5,242.5 548.5,241.8 559.7,229.5 574.7,230.3 		"/>
	</g>
</g>
<path class="st2" d="M372.1,38.2c-0.7-1.2-1.6-2.3-2.8-3.1l0.9-1.8l-2.7-1.3l-0.9,1.8c-1.3-0.4-2.7-0.5-4.1-0.2l-0.7-1.9l-2.8,1
	l0.7,1.9c-1.2,0.7-2.3,1.6-3.1,2.8l-1.8-0.9l-1.3,2.7l1.8,0.9c-0.4,1.3-0.5,2.7-0.2,4.1l-1.9,0.7l1,2.8l1.9-0.7
	c0.7,1.2,1.6,2.3,2.8,3.1l-0.9,1.8l2.7,1.3l0.9-1.8c1.3,0.4,2.7,0.5,4.1,0.2l0.7,1.9l2.8-1l-0.7-1.9c1.2-0.7,2.3-1.6,3.1-2.8
	l1.8,0.9l1.3-2.7l-1.8-0.9c0.4-1.3,0.5-2.7,0.2-4.1l1.9-0.7l-1-2.8L372.1,38.2z M365.8,47.6c-2.7,1-5.7-0.5-6.7-3.2
	c-1-2.7,0.5-5.7,3.2-6.7c2.7-1,5.7,0.5,6.7,3.2C370,43.6,368.6,46.6,365.8,47.6z"/>
<path class="st2" d="M352.1,49.9c-0.3-1.9-1.1-3.7-2.2-5.3l2-2l-2.9-2.9l-2,2c-1.5-1.1-3.3-1.9-5.3-2.2v-2.8h-4.1v2.8
	c-1.9,0.3-3.7,1.1-5.3,2.2l-2-2l-2.9,2.9l2,2c-1.1,1.5-1.9,3.3-2.2,5.3h-2.8v4.1h2.8c0.3,1.9,1.1,3.7,2.2,5.3l-2,2l2.9,2.9l2-2
	c1.5,1.1,3.3,1.9,5.3,2.2v2.8h4.1v-2.8c1.9-0.3,3.7-1.1,5.3-2.2l2,2l2.9-2.9l-2-2c1.1-1.5,1.9-3.3,2.2-5.3h2.8v-4.1H352.1z
	 M339.6,59.2c-4,0-7.3-3.2-7.3-7.3s3.2-7.3,7.3-7.3c4,0,7.3,3.2,7.3,7.3S343.6,59.2,339.6,59.2z"/>
<g>
	<circle class="st13" cx="607.6" cy="116.5" r="16.2"/>
	<polyline class="st14" points="607.6,104.7 607.6,116.5 615.4,116.5 	"/>
</g>
<g>
	<g>
		<polygon class="st15" points="259.5,288 226,288 238.9,245.7 246.6,245.7 		"/>
	</g>
	<rect x="221.6" y="288" class="st15" width="42.3" height="3.1"/>
	<polygon class="st16" points="254.9,273.1 230.8,273.1 234.2,261.3 251.3,261.3 	"/>
</g>
<g>
	<g>
		<polygon class="st15" points="670.5,288 637,288 649.9,245.7 657.6,245.7 		"/>
	</g>
	<rect x="632.6" y="288" class="st15" width="42.3" height="3.1"/>
	<polygon class="st16" points="665.9,273.1 641.8,273.1 645.1,261.3 662.3,261.3 	"/>
</g>
<g>
	<g>
		<polygon class="st15" points="612.4,268.9 619.7,288.5 592,290.1 590.4,285.6 		"/>
	</g>
	
		<rect x="603.7" y="277.4" transform="matrix(-0.3456 -0.9384 0.9384 -0.3456 568.9882 953.5287)" class="st15" width="26.5" height="2"/>
	<polygon class="st16" points="604.7,274.8 609.9,289 602.2,289.5 598.5,279.5 	"/>
</g>
<g>
	
		<ellipse transform="matrix(0.7071 -0.7071 0.7071 0.7071 -51.3836 272.9471)" class="st17" cx="303.8" cy="198.5" rx="19.4" ry="19.4"/>
	<line class="st18" x1="289.8" y1="212.5" x2="265.1" y2="237.2"/>
	<line class="st19" x1="280.6" y1="221.7" x2="259.6" y2="242.6"/>
</g>
<g>
	<g>
		<line class="st20" x1="280.2" y1="147.1" x2="280.2" y2="163.1"/>
		<line class="st20" x1="288.3" y1="155.1" x2="272.2" y2="155.1"/>
	</g>
	<g>
		<line class="st21" x1="291.4" y1="138.7" x2="291.4" y2="146.6"/>
		<line class="st21" x1="295.4" y1="142.6" x2="287.4" y2="142.6"/>
	</g>
</g>
<g>
	<g>
		<line class="st20" x1="686.1" y1="228.3" x2="686.1" y2="244.3"/>
		<line class="st20" x1="694.1" y1="236.3" x2="678.1" y2="236.3"/>
	</g>
	<g>
		<line class="st21" x1="697.3" y1="219.8" x2="697.3" y2="227.7"/>
		<line class="st21" x1="701.2" y1="223.8" x2="693.3" y2="223.8"/>
	</g>
</g>
<line class="st22" x1="629.6" y1="183.6" x2="629.6" y2="290"/>
<path class="st23" d="M634,153.5l18.1,31.3c2,3.4-0.5,7.6-4.4,7.6h-36.2c-3.9,0-6.4-4.2-4.4-7.6l18.1-31.3
	C627.2,150.1,632.1,150.1,634,153.5z"/>
<g>
	<circle class="st24" cx="629.6" cy="175.7" r="7.4"/>
	<line class="st24" x1="624.4" y1="170.5" x2="634.8" y2="180.9"/>
</g>
<line class="st25" x1="55.7" y1="170.8" x2="108.6" y2="170.8"/>
<rect x="152.9" y="90.2" transform="matrix(-1 -1.224647e-16 1.224647e-16 -1 343.2587 194.1141)" class="st26" width="37.5" height="13.7"/>
<rect x="115.4" y="90.2" transform="matrix(-1 -1.224647e-16 1.224647e-16 -1 268.2787 194.114)" class="st26" width="37.5" height="13.7"/>
<rect x="134.1" y="76.3" transform="matrix(-1 -1.224647e-16 1.224647e-16 -1 305.7688 166.2028)" class="st26" width="37.5" height="13.7"/>
<rect x="828.8" y="145" transform="matrix(-1 -1.224647e-16 1.224647e-16 -1 1695.0129 303.7729)" class="st26" width="37.5" height="13.7"/>
<rect x="791.3" y="145" transform="matrix(-1 -1.224647e-16 1.224647e-16 -1 1620.033 303.7728)" class="st26" width="37.5" height="13.7"/>
<rect x="810" y="131.1" transform="matrix(-1 -1.224647e-16 1.224647e-16 -1 1657.5229 275.8616)" class="st26" width="37.5" height="13.7"/>
<rect x="776.3" y="237.3" transform="matrix(-1 -1.224647e-16 1.224647e-16 -1 1590.1707 488.3012)" class="st26" width="37.5" height="13.7"/>
<rect x="738.9" y="237.3" transform="matrix(-1 -1.224647e-16 1.224647e-16 -1 1515.1907 488.3012)" class="st26" width="37.5" height="13.7"/>
<rect x="757.6" y="223.4" transform="matrix(-1 -1.224647e-16 1.224647e-16 -1 1552.6807 460.39)" class="st26" width="37.5" height="13.7"/>
<rect x="795.1" y="223.4" transform="matrix(-1 -1.224647e-16 1.224647e-16 -1 1627.6606 460.39)" class="st26" width="37.5" height="13.7"/>
<rect x="670.5" y="130.4" transform="matrix(-1 -2.667378e-06 2.667378e-06 -1 1378.4189 274.4846)" class="st26" width="37.5" height="13.7"/>
<rect x="689.2" y="116.4" transform="matrix(-1 -1.224647e-16 1.224647e-16 -1 1415.9094 246.5714)" class="st26" width="37.5" height="13.7"/>
<rect x="167.4" y="212" class="st26" width="37.5" height="13.7"/>
<rect x="148.6" y="198.1" class="st26" width="37.5" height="13.7"/>
<rect x="148.6" y="225.9" class="st26" width="37.5" height="13.7"/>
<rect x="753.8" y="53.8" class="st26" width="37.5" height="13.7"/>
<rect x="22.6" y="224.7" class="st26" width="37.5" height="13.7"/>
<rect x="3.8" y="210.9" class="st26" width="37.5" height="13.7"/>
<g>
	<g>
		<path class="st2" d="M200.9,125.8c3.2,0,3.2-5,0-5C197.7,120.8,197.7,125.8,200.9,125.8L200.9,125.8z"/>
	</g>
</g>
<g>
	<g>
		<path class="st2" d="M607.6,238.4c3.2,0,3.2-5,0-5C604.3,233.4,604.3,238.4,607.6,238.4L607.6,238.4z"/>
	</g>
</g>
<g>
	<g>
		<path class="st2" d="M702.9,173.1c3.2,0,3.2-5,0-5C699.7,168.1,699.7,173.1,702.9,173.1L702.9,173.1z"/>
	</g>
</g>
<g>
	<g>
		<path class="st2" d="M76.9,257.8c3.2,0,3.2-5,0-5C73.7,252.8,73.7,257.8,76.9,257.8L76.9,257.8z"/>
	</g>
</g>
<g>
	<g>
		<path class="st2" d="M254.2,203.8c3.2,0,3.2-5,0-5C251,198.8,251,203.8,254.2,203.8L254.2,203.8z"/>
	</g>
</g>
<g>
	<g>
		<path class="st2" d="M174.2,179.9c1.6,0,1.6-2.5,0-2.5C172.6,177.4,172.6,179.9,174.2,179.9L174.2,179.9z"/>
	</g>
</g>
<g>
	<g>
		<path class="st2" d="M705.6,185.9c1.6,0,1.6-2.5,0-2.5C704,183.4,704,185.9,705.6,185.9L705.6,185.9z"/>
	</g>
</g>
<g>
	<g>
		<path class="st2" d="M678.9,160.5c1.6,0,1.6-2.5,0-2.5C677.3,158,677.3,160.5,678.9,160.5L678.9,160.5z"/>
	</g>
</g>
<g>
	<g>
		<path class="st2" d="M591.4,223.7c1.6,0,1.6-2.5,0-2.5C589.7,221.2,589.7,223.7,591.4,223.7L591.4,223.7z"/>
	</g>
</g>
<g>
	<g>
		<path class="st2" d="M235.6,219.9c1.6,0,1.6-2.5,0-2.5C234,217.4,234,219.9,235.6,219.9L235.6,219.9z"/>
	</g>
</g>
<g>
	<g>
		<path class="st2" d="M91.6,282.1c9.7,0,9.7-15,0-15C81.9,267.1,81.9,282.1,91.6,282.1L91.6,282.1z"/>
	</g>
</g>
<g>
	<g>
		<path class="st2" d="M680.2,108.8c9.7,0,9.7-15,0-15C670.6,93.8,670.6,108.8,680.2,108.8L680.2,108.8z"/>
	</g>
</g>
<g>
	<line class="st25" x1="574.5" y1="58.8" x2="668.6" y2="58.8"/>
	<line class="st25" x1="568.9" y1="51.1" x2="603.7" y2="51.1"/>
	<line class="st25" x1="563" y1="66.1" x2="615.9" y2="66.1"/>
	<rect x="541.4" y="51.1" class="st25" width="15.5" height="15.5"/>
</g>
<g>
	<path class="st8" d="M267.3,76.9h-26.1c-3.9,0-7.1-3.2-7.1-7.1l0,0c0-3.9,3.2-7.1,7.1-7.1h26.1c3.9,0,7.1,3.2,7.1,7.1l0,0
		C274.4,73.7,271.2,76.9,267.3,76.9z"/>
	<polyline class="st8" points="234.1,69.8 229.5,69.8 229.5,81.8 252.4,89.3 252.4,97.2 	"/>
	<path class="st2" d="M252.4,123L252.4,123c-1.8,0-3.3-1.5-3.3-3.3v-19.1c0-1.8,1.5-3.3,3.3-3.3l0,0c1.8,0,3.3,1.5,3.3,3.3v19.1
		C255.8,121.5,254.3,123,252.4,123z"/>
</g>
<g>
	<path class="st8" d="M222,141.5c-1.4,1.4-2.4,3-3.1,4.7h-66.3c-0.6-1.2-1.5-2.3-2.4-3.3c-5.7-5.7-14.8-5.7-20.5,0
		c-3.8,3.8-5,9.1-3.8,13.9l6.1-6.1l5.9-0.9l5,5l-0.9,6.6l-5.8,5.8c4.8,1.3,10.1,0,13.9-3.8c1.4-1.4,2.4-3,3.1-4.7h66.3
		c0.6,1.2,1.5,2.3,2.4,3.3c5.7,5.7,14.8,5.7,20.5,0c3.8-3.8,5-9.1,3.8-13.9l-6.1,6.1l-5.9,0.9l-5-5l0.9-6.6l5.8-5.8
		C231.1,136.4,225.8,137.7,222,141.5z"/>
	<path class="st26" d="M216.7,154.2h-61.5c-1,0-1.8-0.8-1.8-1.8l0,0c0-1,0.8-1.8,1.8-1.8h61.5c1,0,1.8,0.8,1.8,1.8l0,0
		C218.5,153.4,217.7,154.2,216.7,154.2z"/>
</g>
<g>
	<polygon class="st8" points="737,207.7 732.2,205.3 737,202.9 775.5,202.9 775.5,207.7 	"/>
	
		<rect x="770" y="203.8" transform="matrix(-6.953329e-06 1 -1 -6.953329e-06 982.6578 -571.7457)" class="st8" width="14.4" height="3.3"/>
</g>
<g>
	<g>
		<path class="st2" d="M652,45.1c3.2,0,3.2-5,0-5C648.8,40.1,648.8,45.1,652,45.1L652,45.1z"/>
	</g>
</g>
<g>
	<g>
		<path class="st2" d="M816.7,83.1c3.2,0,3.2-5,0-5C813.5,78.1,813.5,83.1,816.7,83.1L816.7,83.1z"/>
	</g>
</g>
<g>
	<g>
		<path class="st2" d="M769.4,145.8c3.2,0,3.2-5,0-5C766.1,140.8,766.1,145.8,769.4,145.8L769.4,145.8z"/>
	</g>
</g>
<g>
	<g>
		<path class="st2" d="M195.4,265.1c3.2,0,3.2-5,0-5C192.1,260.1,192.1,265.1,195.4,265.1L195.4,265.1z"/>
	</g>
</g>
<g>
	<g>
		<path class="st2" d="M654,74.5c1.6,0,1.6-2.5,0-2.5C652.4,72,652.4,74.5,654,74.5L654,74.5z"/>
	</g>
</g>
<g>
	<g>
		<path class="st2" d="M782.7,87.2c1.6,0,1.6-2.5,0-2.5C781.1,84.7,781.1,87.2,782.7,87.2L782.7,87.2z"/>
	</g>
</g>
<g>
	<g>
		<path class="st2" d="M796.7,184.5c1.6,0,1.6-2.5,0-2.5C795.1,182,795.1,184.5,796.7,184.5L796.7,184.5z"/>
	</g>
</g>
<g>
	<g>
		<path class="st2" d="M104.7,121.2c1.6,0,1.6-2.5,0-2.5C103.1,118.7,103.1,121.2,104.7,121.2L104.7,121.2z"/>
	</g>
</g>
<g>
	<g>
		<path class="st2" d="M80.7,215.2c1.6,0,1.6-2.5,0-2.5C79.1,212.7,79.1,215.2,80.7,215.2L80.7,215.2z"/>
	</g>
</g>
<g>
	<g>
		<path class="st2" d="M189.4,176.5c1.6,0,1.6-2.5,0-2.5C187.8,174,187.8,176.5,189.4,176.5L189.4,176.5z"/>
	</g>
</g>
<g>
	<g>
		<path class="st2" d="M88.7,222.5c1.6,0,1.6-2.5,0-2.5C87.1,220,87.1,222.5,88.7,222.5L88.7,222.5z"/>
	</g>
</g>
<g>
	<g>
		<path class="st2" d="M221.4,40.5c1.6,0,1.6-2.5,0-2.5C219.8,38,219.8,40.5,221.4,40.5L221.4,40.5z"/>
	</g>
</g>
<g>
	<g>
		<path class="st2" d="M187.4,49.8c1.6,0,1.6-2.5,0-2.5C185.8,47.3,185.8,49.8,187.4,49.8L187.4,49.8z"/>
	</g>
</g>
</svg>
