<?xml version="1.0" encoding="utf-8"?>
<!-- Generator: Adobe Illustrator 20.0.0, SVG Export Plug-In . SVG Version: 6.00 Build 0)  -->
<svg version="1.1" id="Layer_1" xmlns="http://www.w3.org/2000/svg" xmlns:xlink="http://www.w3.org/1999/xlink" x="0px" y="0px"
	 viewBox="0 0 39.4 56.3" style="enable-background:new 0 0 39.4 56.3;" xml:space="preserve">
<style type="text/css">
	.st0{fill-rule:evenodd;clip-rule:evenodd;fill:#EC1C24;}
	.st1{fill-rule:evenodd;clip-rule:evenodd;fill:none;stroke:#EC1C24;stroke-width:2.4375;stroke-miterlimit:10;}
	.st2{fill:#EC1C24;}
	.st3{fill:none;stroke:#EC1C24;stroke-width:1.7419;stroke-miterlimit:10;}
	.st4{opacity:0.46;}
	.st5{opacity:0.15;fill:#EC1C24;}
	.st6{fill:#FFFFFF;}
	.st7{fill:#6D6E70;}
	.st8{fill:none;stroke:#EC1C24;stroke-width:2;stroke-miterlimit:10;}
	.st9{fill:none;stroke:#EC1C24;stroke-width:2;stroke-linecap:round;stroke-linejoin:round;stroke-miterlimit:10;}
	.st10{fill:none;stroke:#EC1C24;stroke-width:2.3004;stroke-linecap:round;stroke-linejoin:round;stroke-miterlimit:10;}
	.st11{fill:none;stroke:#EC1C24;stroke-width:2.3004;stroke-miterlimit:10;}
	.st12{fill:#808184;}
	.st13{fill:#FFDD15;stroke:#EC1C24;stroke-width:2.3004;stroke-miterlimit:10;}
	.st14{fill:#231F20;}
	.st15{fill:none;stroke:#EC1C24;stroke-width:2.9425;stroke-miterlimit:10;}
	.st16{fill:none;stroke:#EC1C24;stroke-width:2.9425;stroke-linecap:round;stroke-miterlimit:10;}
	.st17{fill:#F6921E;stroke:#EC1C24;stroke-width:2;stroke-linecap:round;stroke-linejoin:round;stroke-miterlimit:10;}
	.st18{fill:#F16522;stroke:#EC1C24;stroke-width:2;stroke-linecap:round;stroke-linejoin:round;stroke-miterlimit:10;}
	.st19{fill:#FFFFFF;stroke:#EC1C24;stroke-width:3.531;stroke-linecap:round;stroke-linejoin:round;stroke-miterlimit:10;}
	.st20{fill:none;stroke:#EC1C24;stroke-width:4.7079;stroke-linecap:round;stroke-linejoin:round;stroke-miterlimit:10;}
	.st21{fill:none;stroke:#EC1C24;stroke-width:10.0044;stroke-linecap:round;stroke-linejoin:round;stroke-miterlimit:10;}
	.st22{fill:none;stroke:#EC1C24;stroke-width:2.9425;stroke-linecap:round;stroke-linejoin:round;stroke-miterlimit:10;}
	.st23{fill:none;stroke:#EC1C24;stroke-width:1.4539;stroke-linecap:round;stroke-linejoin:round;stroke-miterlimit:10;}
	.st24{fill:#FFDD15;stroke:#EC1C24;stroke-width:2.354;stroke-miterlimit:10;}
	.st25{fill:#FFDD15;stroke:#EC1C24;stroke-width:2;stroke-miterlimit:10;}
	.st26{fill:none;stroke:#EC1C24;stroke-width:2.2629;stroke-miterlimit:10;}
	.st27{fill:none;stroke:#EC1C24;stroke-width:2.2629;stroke-linecap:round;stroke-linejoin:round;stroke-miterlimit:10;}
	.st28{fill:none;stroke:#EC1C24;stroke-linecap:round;stroke-linejoin:round;stroke-miterlimit:10;}
</style>
<g>
	<g>
		<path class="st0" d="M35.2,34.2h2.6c0.9,0,1.6-0.7,1.6-1.6v-16c0-0.9-0.7-1.6-1.6-1.6l0,0H21.4c-0.9,0-1.6,0.7-1.6,1.6v16
			c0,0.9,0.7,1.6,1.6,1.6h13.2"/>
	</g>
	<path class="st2" d="M31.9,11.9V4.1c0-2.3-1.8-4.1-4.1-4.1H4.1C1.8,0,0,1.8,0,4.1v48.1c0,2.3,1.8,4.1,4.1,4.1h23.7
		c2.3,0,4.1-1.8,4.1-4.1V37.4l-0.2-0.2h-2.9v8.5H3.1V6.9h25.8v5H31.9z M23,49.8c0-0.3,0.2-0.6,0.6-0.6h1.4c0.3,0,0.6,0.3,0.6,0.6
		v1.4c0,0.3-0.3,0.6-0.6,0.6h-1.4c-0.3,0-0.6-0.3-0.6-0.6V49.8z M12.7,48.9c0-0.8,0.7-1.4,1.4-1.4h3.5c0.8,0,1.5,0.7,1.5,1.4v3.5
		c0,0.8-0.7,1.4-1.5,1.4h-3.5c-0.8,0-1.4-0.6-1.4-1.4V48.9z M6.4,49.8c0-0.3,0.2-0.6,0.6-0.6h1.4c0.3,0,0.6,0.3,0.6,0.6v1.4
		c0,0.3-0.3,0.6-0.6,0.6H7c-0.3,0-0.6-0.3-0.6-0.6V49.8z"/>
</g>
</svg>
