<?xml version="1.0" encoding="utf-8"?>
<!-- Generator: Adobe Illustrator 20.0.0, SVG Export Plug-In . SVG Version: 6.00 Build 0)  -->
<svg version="1.1" id="Layer_1" xmlns="http://www.w3.org/2000/svg" xmlns:xlink="http://www.w3.org/1999/xlink" x="0px" y="0px"
	 viewBox="0 0 72.5 60.3" style="enable-background:new 0 0 72.5 60.3;" xml:space="preserve">
<style type="text/css">
	.st0{fill-rule:evenodd;clip-rule:evenodd;fill:#EC1C24;}
	.st1{fill-rule:evenodd;clip-rule:evenodd;fill:none;stroke:#EC1C24;stroke-width:2.4375;stroke-miterlimit:10;}
	.st2{fill:#EC1C24;}
	.st3{fill:none;stroke:#EC1C24;stroke-width:1.7419;stroke-miterlimit:10;}
	.st4{opacity:0.46;}
	.st5{opacity:0.15;fill:#EC1C24;}
	.st6{fill:#FFFFFF;}
	.st7{fill:#6D6E70;}
	.st8{fill:none;stroke:#EC1C24;stroke-width:2;stroke-miterlimit:10;}
	.st9{fill:none;stroke:#EC1C24;stroke-width:2;stroke-linecap:round;stroke-linejoin:round;stroke-miterlimit:10;}
	.st10{fill:none;stroke:#EC1C24;stroke-width:2.3004;stroke-linecap:round;stroke-linejoin:round;stroke-miterlimit:10;}
	.st11{fill:none;stroke:#EC1C24;stroke-width:2.3004;stroke-miterlimit:10;}
	.st12{fill:#808184;}
	.st13{fill:#FFDD15;stroke:#EC1C24;stroke-width:2.3004;stroke-miterlimit:10;}
	.st14{fill:#231F20;}
	.st15{fill:none;stroke:#EC1C24;stroke-width:2.9425;stroke-miterlimit:10;}
	.st16{fill:none;stroke:#EC1C24;stroke-width:2.9425;stroke-linecap:round;stroke-miterlimit:10;}
	.st17{fill:#F6921E;stroke:#EC1C24;stroke-width:2;stroke-linecap:round;stroke-linejoin:round;stroke-miterlimit:10;}
	.st18{fill:#F16522;stroke:#EC1C24;stroke-width:2;stroke-linecap:round;stroke-linejoin:round;stroke-miterlimit:10;}
	.st19{fill:#FFFFFF;stroke:#EC1C24;stroke-width:3.531;stroke-linecap:round;stroke-linejoin:round;stroke-miterlimit:10;}
	.st20{fill:none;stroke:#EC1C24;stroke-width:4.7079;stroke-linecap:round;stroke-linejoin:round;stroke-miterlimit:10;}
	.st21{fill:none;stroke:#EC1C24;stroke-width:10.0044;stroke-linecap:round;stroke-linejoin:round;stroke-miterlimit:10;}
	.st22{fill:none;stroke:#EC1C24;stroke-width:2.9425;stroke-linecap:round;stroke-linejoin:round;stroke-miterlimit:10;}
	.st23{fill:none;stroke:#EC1C24;stroke-width:1.4539;stroke-linecap:round;stroke-linejoin:round;stroke-miterlimit:10;}
	.st24{fill:#FFDD15;stroke:#EC1C24;stroke-width:2.354;stroke-miterlimit:10;}
	.st25{fill:#FFDD15;stroke:#EC1C24;stroke-width:2;stroke-miterlimit:10;}
	.st26{fill:none;stroke:#EC1C24;stroke-width:2.2629;stroke-miterlimit:10;}
	.st27{fill:none;stroke:#EC1C24;stroke-width:2.2629;stroke-linecap:round;stroke-linejoin:round;stroke-miterlimit:10;}
	.st28{fill:none;stroke:#EC1C24;stroke-linecap:round;stroke-linejoin:round;stroke-miterlimit:10;}
</style>
<g>
	<path class="st1" d="M8.5,25.7v17.6c0,0.9,0.7,1.6,1.6,1.6h59.6c0.9,0,1.6-0.7,1.6-1.6V8.6c0-0.9-0.7-1.6-1.6-1.6H26.6"/>
	<path class="st1" d="M57.3,54.6H22.5c-0.9,0-1.6,0.7-1.6,1.6v1.1c0,0.9,0.7,1.6,1.6,1.6h34.8c0.9,0,1.6-0.7,1.6-1.6v-1.1
		C58.9,55.3,58.2,54.6,57.3,54.6z"/>
	<rect x="37.5" y="44.8" class="st1" width="4.8" height="9.8"/>
	<g id="XMLID_11457_">
		<path id="XMLID_11467_" class="st2" d="M21.8,21.1c-0.2,0-0.4,0-0.6,0.1c-0.2,0.1-0.3,0.3-0.3,0.5l-0.7,3.5
			c-0.1,0.4,0.2,0.9,0.6,0.9l1.4,0.3c0.1,0.7,0.2,1.5,0.5,2.2l-1.2,0.8c-0.2,0.1-0.3,0.3-0.3,0.5c0,0.2,0,0.4,0.1,0.6l2,3
			c0.1,0.2,0.3,0.3,0.5,0.3c0.2,0,0.4,0,0.6-0.1l1.2-0.8c0.6,0.5,1.2,0.9,1.9,1.2l-0.3,1.4c-0.1,0.4,0.2,0.9,0.6,0.9l3.5,0.7
			c0.1,0,0.1,0,0.2,0c0.4,0,0.7-0.3,0.8-0.6l0.3-1.4c0.7-0.1,1.5-0.2,2.2-0.5l0.8,1.2c0.1,0.2,0.3,0.3,0.5,0.3c0.2,0,0.4,0,0.6-0.1
			l3-2c0.4-0.2,0.5-0.7,0.2-1.1l-0.8-1.2c0.5-0.6,0.9-1.2,1.2-1.9l1.4,0.3c0.4,0.1,0.8-0.2,0.9-0.6l0.7-3.5c0-0.2,0-0.4-0.1-0.6
			c-0.1-0.2-0.3-0.3-0.5-0.3l-1.4-0.3c-0.1-0.7-0.2-1.5-0.5-2.2l1.2-0.8c0.4-0.2,0.5-0.7,0.2-1.1l-2-3c-0.1-0.2-0.3-0.3-0.5-0.3
			c-0.2,0-0.4,0-0.6,0.1l-1.2,0.8c-0.6-0.5-1.2-0.9-1.9-1.2l0.3-1.4c0.1-0.4-0.2-0.9-0.6-0.9l-3.5-0.7c-0.2,0-0.4,0-0.6,0.1
			c-0.2,0.1-0.3,0.3-0.3,0.5l-0.3,1.4c-0.7,0.1-1.5,0.2-2.2,0.5L28,15.4c-0.1-0.2-0.3-0.3-0.5-0.3c-0.2,0-0.4,0-0.6,0.1l-3,2
			c-0.2,0.1-0.3,0.3-0.3,0.5c0,0.2,0,0.4,0.1,0.6l0.8,1.1c-0.5,0.6-0.9,1.2-1.2,1.9L21.8,21.1z M24.4,22.6c0.4-0.9,0.9-1.7,1.6-2.5
			c0.3-0.3,0.3-0.7,0.1-1l-0.7-1l1.7-1.1l0.7,1c0.2,0.3,0.6,0.4,1,0.3c0.9-0.4,1.9-0.6,2.9-0.6c0.4,0,0.7-0.3,0.8-0.7l0.2-1.2l2,0.4
			l-0.2,1.2c-0.1,0.4,0.1,0.7,0.5,0.9c0.9,0.4,1.7,0.9,2.5,1.6c0.3,0.3,0.7,0.3,1,0.1l1-0.7l1.1,1.7l-1,0.7c-0.3,0.2-0.4,0.6-0.3,1
			c0.4,0.9,0.6,1.9,0.6,2.9c0,0.4,0.3,0.7,0.7,0.8l1.2,0.2l-0.4,2L40,28.2c-0.4-0.1-0.7,0.1-0.9,0.5c-0.4,0.9-0.9,1.7-1.6,2.5
			c-0.3,0.3-0.3,0.7-0.1,1l0.7,1l-1.7,1.1l-0.7-1c-0.2-0.3-0.6-0.4-1-0.3c-0.9,0.4-1.9,0.6-2.9,0.6c-0.4,0-0.7,0.3-0.8,0.7l-0.2,1.2
			l-2-0.4l0.2-1.2c0.1-0.4-0.1-0.7-0.5-0.9c-0.9-0.4-1.7-0.9-2.5-1.6c-0.3-0.3-0.7-0.3-1-0.1l-1,0.7l-1.1-1.7l1-0.7
			c0.3-0.2,0.4-0.6,0.3-1c-0.4-0.9-0.6-1.9-0.6-2.9c0-0.4-0.3-0.7-0.7-0.8l-1.2-0.2l0.4-2l1.2,0.2C23.9,23.1,24.3,22.9,24.4,22.6z"
			/>
		<path id="XMLID_11464_" class="st2" d="M30.7,31.3L30.7,31.3c0.4,0.1,0.7,0.1,1.1,0.1c2.7,0,5.1-1.9,5.7-4.7
			c0.6-3.1-1.5-6.1-4.6-6.7c-1.5-0.3-3,0-4.3,0.9c-1.3,0.9-2.1,2.2-2.4,3.7c-0.3,1.5,0,3,0.9,4.3C27.9,30.2,29.2,31,30.7,31.3z
			 M27.7,24.9c0.2-1.1,0.8-2,1.7-2.7c0.7-0.5,1.5-0.7,2.3-0.7c0.3,0,0.5,0,0.8,0.1c2.3,0.4,3.7,2.6,3.3,4.9c-0.2,1.1-0.8,2-1.7,2.7
			c-0.9,0.6-2,0.9-3.1,0.6l0,0c-1.1-0.2-2-0.8-2.7-1.7C27.7,27.1,27.5,26,27.7,24.9z"/>
		<path id="XMLID_11461_" class="st2" d="M0.5,15c0.1,0.4,0.5,0.7,0.9,0.7l1.4-0.2c0.3,0.7,0.7,1.3,1.1,1.9l-0.8,1.1
			C3,18.7,2.9,18.9,3,19.1c0,0.2,0.1,0.4,0.3,0.5l2.9,2.2C6.5,22,7,22,7.3,21.6l0.8-1.1c0.7,0.3,1.4,0.5,2.2,0.6l0.2,1.4
			c0,0.2,0.1,0.4,0.3,0.5c0.1,0.1,0.3,0.2,0.5,0.2c0,0,0.1,0,0.1,0l3.6-0.5c0.4-0.1,0.7-0.5,0.7-0.9l-0.2-1.4
			c0.7-0.3,1.3-0.7,1.9-1.1l1.1,0.8c0.4,0.3,0.9,0.2,1.1-0.2l2.2-2.9c0.3-0.4,0.2-0.9-0.2-1.1L20.5,15c0.3-0.7,0.5-1.4,0.6-2.2
			l1.4-0.2c0.2,0,0.4-0.1,0.5-0.3c0.1-0.2,0.2-0.4,0.2-0.6l-0.5-3.6c-0.1-0.4-0.5-0.7-0.9-0.7l-1.4,0.2C20,7,19.6,6.3,19.2,5.7
			L20,4.6c0.1-0.2,0.2-0.4,0.2-0.6c0-0.2-0.1-0.4-0.3-0.5L17,1.3c-0.2-0.1-0.4-0.2-0.6-0.2c-0.2,0-0.4,0.1-0.5,0.3L15,2.6
			c-0.7-0.3-1.4-0.5-2.2-0.6l-0.2-1.4c-0.1-0.4-0.5-0.7-0.9-0.7L8.2,0.5c-0.2,0-0.4,0.1-0.5,0.3C7.5,1,7.4,1.2,7.5,1.4l0.2,1.4
			C7,3.1,6.3,3.5,5.7,4L4.6,3.1C4.5,3,4.2,2.9,4,3C3.8,3,3.6,3.1,3.5,3.3L1.3,6.2C1.2,6.3,1.2,6.5,1.2,6.8c0,0.2,0.1,0.4,0.3,0.5
			l1.1,0.8c-0.3,0.7-0.5,1.4-0.6,2.2l-1.4,0.2c-0.2,0-0.4,0.1-0.5,0.3C0,11,0,11.2,0,11.4L0.5,15z M5.3,5.6c0.3,0.2,0.7,0.2,1,0
			C7,4.9,7.9,4.4,8.8,4.1c0.4-0.1,0.6-0.5,0.5-0.9L9.2,2l2-0.3l0.2,1.2c0.1,0.4,0.4,0.7,0.7,0.7c1,0.1,1.9,0.3,2.9,0.7
			c0.3,0.2,0.8,0.1,1-0.2l0.7-1l1.6,1.2l-0.7,1c-0.2,0.3-0.2,0.7,0,1c0.7,0.7,1.2,1.6,1.5,2.5c0.1,0.4,0.5,0.6,0.9,0.5l1.2-0.2
			l0.3,2l-1.2,0.2c-0.4,0.1-0.7,0.4-0.7,0.7c-0.1,1-0.3,2-0.7,2.9c-0.2,0.3-0.1,0.7,0.2,1l1,0.7l-1.2,1.6l-1-0.7
			c-0.3-0.2-0.7-0.2-1,0c-0.8,0.7-1.6,1.2-2.5,1.5c-0.4,0.1-0.6,0.5-0.5,0.9l0.2,1.2l-2,0.3l-0.2-1.2c-0.1-0.4-0.4-0.7-0.7-0.7
			c-1-0.1-2-0.3-2.9-0.7c-0.1-0.1-0.2-0.1-0.3-0.1c-0.2,0-0.5,0.1-0.6,0.3l-0.7,1l-1.6-1.2l0.7-1c0.2-0.3,0.2-0.7,0-1
			c-0.7-0.7-1.2-1.6-1.5-2.5c-0.1-0.4-0.5-0.6-0.9-0.5L2,13.9l-0.3-2l1.2-0.2c0.4-0.1,0.7-0.4,0.7-0.7c0.1-1,0.3-2,0.7-2.9
			c0.2-0.3,0.1-0.8-0.2-1l-1-0.7l1.2-1.6L5.3,5.6z"/>
		<path id="XMLID_11458_" class="st2" d="M11.6,17.3c0.3,0,0.5,0,0.8-0.1c3.1-0.4,5.3-3.4,4.9-6.5c-0.4-3.1-3.4-5.3-6.5-4.9
			c-3.1,0.5-5.3,3.4-4.9,6.5C6.3,15.2,8.7,17.3,11.6,17.3z M15.7,11c0.3,2.3-1.3,4.4-3.5,4.7c-2.3,0.3-4.4-1.3-4.7-3.5
			C7.1,9.9,8.7,7.8,11,7.4c0.2,0,0.4,0,0.6,0C13.6,7.4,15.4,8.9,15.7,11z"/>
	</g>
</g>
</svg>
