<?xml version="1.0" encoding="utf-8"?>
<!-- Generator: Adobe Illustrator 20.0.0, SVG Export Plug-In . SVG Version: 6.00 Build 0)  -->
<svg version="1.1" id="Layer_1" xmlns="http://www.w3.org/2000/svg" xmlns:xlink="http://www.w3.org/1999/xlink" x="0px" y="0px"
	 viewBox="0 0 47.5 47.4" style="enable-background:new 0 0 47.5 47.4;" xml:space="preserve">
<style type="text/css">
	.st0{fill-rule:evenodd;clip-rule:evenodd;fill:#EC1C24;}
	.st1{fill-rule:evenodd;clip-rule:evenodd;fill:none;stroke:#EC1C24;stroke-width:2.4375;stroke-miterlimit:10;}
	.st2{fill:#EC1C24;}
	.st3{fill:none;stroke:#EC1C24;stroke-width:1.7419;stroke-miterlimit:10;}
	.st4{opacity:0.46;}
	.st5{opacity:0.15;fill:#EC1C24;}
	.st6{fill:#FFFFFF;}
	.st7{fill:#6D6E70;}
	.st8{fill:none;stroke:#EC1C24;stroke-width:2;stroke-miterlimit:10;}
	.st9{fill:none;stroke:#EC1C24;stroke-width:2;stroke-linecap:round;stroke-linejoin:round;stroke-miterlimit:10;}
	.st10{fill:none;stroke:#EC1C24;stroke-width:2.3004;stroke-linecap:round;stroke-linejoin:round;stroke-miterlimit:10;}
	.st11{fill:none;stroke:#EC1C24;stroke-width:2.3004;stroke-miterlimit:10;}
	.st12{fill:#808184;}
	.st13{fill:#FFDD15;stroke:#EC1C24;stroke-width:2.3004;stroke-miterlimit:10;}
	.st14{fill:#231F20;}
	.st15{fill:none;stroke:#EC1C24;stroke-width:2.9425;stroke-miterlimit:10;}
	.st16{fill:none;stroke:#EC1C24;stroke-width:2.9425;stroke-linecap:round;stroke-miterlimit:10;}
	.st17{fill:#F6921E;stroke:#EC1C24;stroke-width:2;stroke-linecap:round;stroke-linejoin:round;stroke-miterlimit:10;}
	.st18{fill:#F16522;stroke:#EC1C24;stroke-width:2;stroke-linecap:round;stroke-linejoin:round;stroke-miterlimit:10;}
	.st19{fill:#FFFFFF;stroke:#EC1C24;stroke-width:3.531;stroke-linecap:round;stroke-linejoin:round;stroke-miterlimit:10;}
	.st20{fill:none;stroke:#EC1C24;stroke-width:4.7079;stroke-linecap:round;stroke-linejoin:round;stroke-miterlimit:10;}
	.st21{fill:none;stroke:#EC1C24;stroke-width:10.0044;stroke-linecap:round;stroke-linejoin:round;stroke-miterlimit:10;}
	.st22{fill:none;stroke:#EC1C24;stroke-width:2.9425;stroke-linecap:round;stroke-linejoin:round;stroke-miterlimit:10;}
	.st23{fill:none;stroke:#EC1C24;stroke-width:1.4539;stroke-linecap:round;stroke-linejoin:round;stroke-miterlimit:10;}
	.st24{fill:#FFDD15;stroke:#EC1C24;stroke-width:2.354;stroke-miterlimit:10;}
	.st25{fill:#FFDD15;stroke:#EC1C24;stroke-width:2;stroke-miterlimit:10;}
	.st26{fill:none;stroke:#EC1C24;stroke-width:2.2629;stroke-miterlimit:10;}
	.st27{fill:none;stroke:#EC1C24;stroke-width:2.2629;stroke-linecap:round;stroke-linejoin:round;stroke-miterlimit:10;}
	.st28{fill:none;stroke:#EC1C24;stroke-linecap:round;stroke-linejoin:round;stroke-miterlimit:10;}
</style>
<g id="XMLID_10695_">
	<path id="XMLID_10696_" class="st2" d="M24.7,0l-2.3,0c0,0,0,0,0,0C9.9,0.7,0,11.1,0,23.7c0,12.6,9.9,23,22.5,23.7l2.3,0
		c12.8-0.5,22.7-10.9,22.7-23.7C47.5,10.9,37.5,0.5,24.7,0z M40.4,9.5c-1.7,1.3-3.5,2.4-5.5,3.2c-1.6-4-4.2-7.7-7.5-10.6
		C32.5,3,37,5.6,40.4,9.5z M24.7,2.2c3.8,2.9,6.8,6.8,8.6,11.2c-2.8,1-5.6,1.5-8.6,1.6V2.2z M24.7,16.8c3.1-0.1,6.2-0.6,9.2-1.7
		c0.9,2.7,1.4,5.6,1.4,8.5l-10.6,0V16.8z M24.7,25.4l10.5,0c-0.2,2.8-0.8,5.6-1.8,8.2c-2.8-0.9-5.7-1.4-8.7-1.5V25.4z M19.7,2.2
		c-3.2,2.8-5.7,6.3-7.3,10.2c-1.8-0.9-3.5-1.9-5.1-3.2C10.6,5.5,15,3.1,19.7,2.2z M6.2,10.6c1.7,1.4,3.6,2.5,5.6,3.5
		c-1.1,3-1.6,6.2-1.6,9.5l-8.3,0C1.9,18.9,3.4,14.4,6.2,10.6z M6.9,37.7c-2.9-3.5-4.6-7.7-5-12.3l8.3,0c0.2,3.2,0.9,6.3,2,9.2
		C10.4,35.4,8.6,36.5,6.9,37.7z M8.1,39.1c1.5-1.1,3.1-2,4.9-2.8c1.6,3.4,3.9,6.4,6.8,9C15.4,44.4,11.3,42.3,8.1,39.1z M22.8,45.4
		c-3.5-2.6-6.3-6-8.1-9.8c2.6-0.9,5.3-1.5,8.1-1.6V45.4z M22.8,32.1c-3.1,0.1-6,0.7-8.9,1.8c-1.1-2.7-1.7-5.5-1.9-8.5l10.8,0V32.1z
		 M22.8,23.6l-10.8,0c0-3,0.5-6,1.5-8.8c3,1.2,6.1,1.8,9.3,2V23.6z M22.8,14.9c-3-0.1-5.9-0.8-8.7-1.9C16,8.7,19,4.9,22.8,2V14.9z
		 M24.7,45.2V33.9c2.7,0.1,5.4,0.5,8,1.4C30.9,39.1,28.1,42.5,24.7,45.2z M27.4,45.3c3-2.7,5.3-5.8,7-9.4c1.8,0.7,3.6,1.7,5.2,2.8
		C36.3,42.2,32.1,44.5,27.4,45.3z M40.8,37.4c-1.8-1.3-3.7-2.3-5.7-3.1c1.1-2.8,1.7-5.8,1.9-8.8l8.6,0
		C45.2,29.8,43.6,33.9,40.8,37.4z M45.6,23.6l-8.6,0c0-3.1-0.5-6.2-1.5-9.1c2.1-0.9,4.1-2.1,6-3.5C44.2,14.6,45.6,19,45.6,23.6z"/>
</g>
</svg>
