<?xml version="1.0" encoding="utf-8"?>
<!-- Generator: Adobe Illustrator 20.0.0, SVG Export Plug-In . SVG Version: 6.00 Build 0)  -->
<svg version="1.1" id="Layer_1" xmlns="http://www.w3.org/2000/svg" xmlns:xlink="http://www.w3.org/1999/xlink" x="0px" y="0px"
	 viewBox="0 0 67.1 88" style="enable-background:new 0 0 67.1 88;" xml:space="preserve">
<style type="text/css">
	.st0{fill:none;stroke:#2D472D;stroke-width:4.5511;stroke-miterlimit:10;}
	.st1{fill:#2D472D;}
	.st2{fill:#2D472D;stroke:#FFFFFF;stroke-miterlimit:10;}
	.st3{fill:none;stroke:#FFFFFF;stroke-miterlimit:10;}
	.st4{fill:#D0D2D3;stroke:#FFFFFF;stroke-miterlimit:10;}
	.st5{fill:none;stroke:#FFFFFF;stroke-width:0.8382;stroke-miterlimit:10;}
	.st6{fill:#FFFFFF;}
</style>
<g>
	<g>
		
			<rect x="10.3" y="30.7" transform="matrix(-1.498219e-07 1 -1 -1.498219e-07 93.8007 26.8067)" class="st0" width="46.5" height="59.2"/>
	</g>
	<path class="st0" d="M9.6,37.1V16.6c0-7.1,5.8-12.9,12.9-12.9h22c7.1,0,12.9,5.8,12.9,12.9v7.9"/>
	<path class="st1" d="M39.7,51.4c0-3.4-2.8-6.2-6.2-6.2c-3.4,0-6.2,2.8-6.2,6.2c0,2.7,1.7,5,4.1,5.8l-3.5,15.1h11.1l-3.5-15.1
		C37.9,56.4,39.7,54.1,39.7,51.4z"/>
</g>
</svg>
