<?xml version="1.0" encoding="utf-8"?>
<!-- Generator: Adobe Illustrator 20.0.0, SVG Export Plug-In . SVG Version: 6.00 Build 0)  -->
<svg version="1.1" id="Layer_1" xmlns="http://www.w3.org/2000/svg" xmlns:xlink="http://www.w3.org/1999/xlink" x="0px" y="0px"
	 viewBox="0 0 103.3 62.2" style="enable-background:new 0 0 103.3 62.2;" xml:space="preserve">
<style type="text/css">
	.st0{fill:none;stroke:#2D472D;stroke-width:4.5511;stroke-miterlimit:10;}
	.st1{fill:#2D472D;}
	.st2{fill:#2D472D;stroke:#FFFFFF;stroke-miterlimit:10;}
	.st3{fill:none;stroke:#FFFFFF;stroke-miterlimit:10;}
	.st4{fill:#D0D2D3;stroke:#FFFFFF;stroke-miterlimit:10;}
	.st5{fill:none;stroke:#FFFFFF;stroke-width:0.8382;stroke-miterlimit:10;}
	.st6{fill:#FFFFFF;}
</style>
<g>
	<polygon class="st2" points="68.8,60.4 1.6,60.4 34.5,1.8 101.7,1.8 	"/>
	<g>
		<path class="st2" d="M57.4,36.9c0,1.5-5.2,2.7-11.5,2.7s-11.5-1.2-11.5-2.7v-4.1h23.1V36.9z"/>
		<ellipse class="st2" cx="45.8" cy="32.7" rx="11.5" ry="2.7"/>
		<path class="st2" d="M57.4,32.7c0,1.5-5.2,2.7-11.5,2.7s-11.5-1.2-11.5-2.7v-4.1h23.1V32.7z"/>
		<ellipse class="st2" cx="45.8" cy="28.6" rx="11.5" ry="2.7"/>
		<path class="st2" d="M57.4,28.6c0,1.5-5.2,2.7-11.5,2.7s-11.5-1.2-11.5-2.7v-4.1h23.1V28.6z"/>
		<ellipse class="st2" cx="45.8" cy="24.5" rx="11.5" ry="2.7"/>
		<path class="st2" d="M57.4,24.5c0,1.5-5.2,2.7-11.5,2.7S34.3,26,34.3,24.5v-4.1h23.1V24.5z"/>
		<ellipse class="st2" cx="45.8" cy="20.4" rx="11.5" ry="2.7"/>
		<g>
			<path class="st2" d="M69.3,40.9c0,1.5-5.2,2.7-11.5,2.7s-11.5-1.2-11.5-2.7v-4.1h23.1V40.9z"/>
			<ellipse class="st2" cx="57.7" cy="36.8" rx="11.5" ry="2.7"/>
		</g>
		<g>
			<path class="st2" d="M69.3,36.9c0,1.5-5.2,2.7-11.5,2.7s-11.5-1.2-11.5-2.7v-4.1h23.1V36.9z"/>
			<ellipse class="st2" cx="57.7" cy="32.7" rx="11.5" ry="2.7"/>
		</g>
	</g>
</g>
</svg>
