<?xml version="1.0" encoding="utf-8"?>
<!-- Generator: Adobe Illustrator 20.0.0, SVG Export Plug-In . SVG Version: 6.00 Build 0)  -->
<svg version="1.1" id="Layer_1" xmlns="http://www.w3.org/2000/svg" xmlns:xlink="http://www.w3.org/1999/xlink" x="0px" y="0px"
	 viewBox="0 0 194.5 553.3" style="enable-background:new 0 0 194.5 553.3;" xml:space="preserve">
<style type="text/css">
	.st0{fill:none;stroke:#2D472D;stroke-width:4.5511;stroke-miterlimit:10;}
	.st1{fill:#2D472D;}
	.st2{fill:#2D472D;stroke:#FFFFFF;stroke-miterlimit:10;}
	.st3{fill:none;stroke:#FFFFFF;stroke-miterlimit:10;}
	.st4{fill:#D0D2D3;stroke:#FFFFFF;stroke-miterlimit:10;}
	.st5{fill:none;stroke:#FFFFFF;stroke-width:0.8382;stroke-miterlimit:10;}
	.st6{fill:#FFFFFF;}
	.st7{fill:none;stroke:#2D472D;stroke-width:4.3925;stroke-miterlimit:10;}
	.st8{fill:none;stroke:#2D472D;stroke-width:4.0272;stroke-miterlimit:10;}
	.st9{fill:#E6E7E8;}
	.st10{opacity:0.5;}
	.st11{opacity:0.3;clip-path:url(#SVGID_2_);}
	.st12{fill:#7A7E80;}
</style>
<g>
	<g>
		
			<image style="overflow:visible;opacity:0.2;" width="525" height="1272" xlink:href="3526EBCFF9B48017.png"  transform="matrix(0.48 0 0 0.48 -25.3317 -25.3317)">
		</image>
		<g>
			<rect class="st9" width="194.5" height="553.3"/>
		</g>
	</g>
	<g class="st10">
		<defs>
			
				<rect id="SVGID_1_" x="-95.3" y="264.2" transform="matrix(-5.204107e-07 -1 1 -5.204107e-07 -264.28 457.9797)" class="st10" width="384.3" height="193.9"/>
		</defs>
		<clipPath id="SVGID_2_">
			<use xlink:href="#SVGID_1_"  style="overflow:visible;"/>
		</clipPath>
		<g class="st11">
			<polygon class="st12" points="0.9,196.7 1.2,196.3 0.7,196.3 			"/>
			<polygon class="st12" points="20.3,207.6 20,207.2 19.8,207.6 			"/>
			<polygon class="st12" points="20,230.6 21,229 19.1,229 			"/>
			<polygon class="st12" points="3,241.8 0.9,238.2 -1.1,241.8 			"/>
			<polygon class="st12" points="39.9,241 39.1,239.7 38.4,241 			"/>
			<polygon class="st12" points="0.9,265.8 3.7,261 -1.8,261 			"/>
			<polygon class="st12" points="39.1,264.3 40.6,261.8 37.7,261.8 			"/>
			<polygon class="st12" points="22.7,275.2 20,270.6 17.4,275.2 			"/>
			<polygon class="st12" points="77.3,262.6 77.3,262.6 77.3,262.6 			"/>
			<polygon class="st12" points="59.1,274.1 58.2,272.6 57.4,274.1 			"/>
			<polygon class="st12" points="20,299.6 23.4,293.8 16.7,293.8 			"/>
			<polygon class="st12" points="5.2,309.2 0.9,301.8 -3.4,309.2 			"/>
			<polygon class="st12" points="58.2,297.5 59.8,294.8 56.7,294.8 			"/>
			<polygon class="st12" points="42.2,308.5 39.1,303.1 36,308.5 			"/>
			<polygon class="st12" points="0.9,334.4 5.7,326 -3.9,326 			"/>
			<polygon class="st12" points="78.5,307.4 77.3,305.4 76.2,307.4 			"/>
			<polygon class="st12" points="39.1,333.3 43,326.6 35.2,326.6 			"/>
			<polygon class="st12" points="24.8,342.6 20,334.3 15.2,342.6 			"/>
			<polygon class="st12" points="77.3,330.9 79.2,327.7 75.5,327.7 			"/>
			<polygon class="st12" points="61.4,341.6 58.2,336.2 55.1,341.6 			"/>
			<polygon class="st12" points="20,368.3 25.5,358.7 14.5,358.7 			"/>
			<polygon class="st12" points="6.9,376.3 0.9,366 -5,376.3 			"/>
			<polygon class="st12" points="97.3,340.3 96.4,338.8 95.6,340.3 			"/>
			<polygon class="st12" points="58.2,366.4 62.1,359.6 54.3,359.6 			"/>
			<polygon class="st12" points="44.5,376 39.1,366.7 33.7,376 			"/>
			<polygon class="st12" points="0.9,402.3 7.3,391.3 -5.5,391.3 			"/>
			<polygon class="st12" points="96.4,363.6 98,361 94.9,361 			"/>
			<polygon class="st12" points="80.7,374.9 77.3,369 74,374.9 			"/>
			<polygon class="st12" points="39.1,401.8 45.1,391.5 33.2,391.5 			"/>
			<polygon class="st12" points="26.9,409.9 20,398.1 13.2,409.9 			"/>
			<polygon class="st12" points="116.2,373.3 115.5,372.1 114.8,373.3 			"/>
			<polygon class="st12" points="77.3,399.8 81.5,392.6 73.2,392.6 			"/>
			<polygon class="st12" points="63.6,409.1 58.2,399.8 52.9,409.1 			"/>
			<polygon class="st12" points="20,436.7 27.5,423.7 12.6,423.7 			"/>
			<polygon class="st12" points="8.7,443.6 0.9,430.1 -6.8,443.6 			"/>
			<polygon class="st12" points="115.5,396.5 116.9,394.2 114.2,394.2 			"/>
			<polygon class="st12" points="99.6,407.8 96.4,402.4 93.3,407.8 			"/>
			<polygon class="st12" points="58.2,435.3 64.5,424.4 52,424.4 			"/>
			<polygon class="st12" points="46.7,443.5 39.1,430.3 31.5,443.5 			"/>
			<polygon class="st12" points="0.9,471 9.5,456.2 -7.6,456.2 			"/>
			<polygon class="st12" points="135,406.2 134.6,405.6 134.3,406.2 			"/>
			<polygon class="st12" points="96.4,432.5 100.3,425.8 92.6,425.8 			"/>
			<polygon class="st12" points="83.3,442.5 77.3,432.2 71.4,442.5 			"/>
			<polygon class="st12" points="39.1,470.8 47.5,456.3 30.7,456.3 			"/>
			<polygon class="st12" points="29.1,477.4 20,461.7 11,477.4 			"/>
			<polygon class="st12" points="134.6,429.2 135.6,427.5 133.7,427.5 			"/>
			<polygon class="st12" points="118.5,440.8 115.5,435.6 112.5,440.8 			"/>
			<polygon class="st12" points="77.3,468.9 84,457.3 70.6,457.3 			"/>
			<polygon class="st12" points="66.2,476.7 58.2,463 50.3,476.7 			"/>
			<polygon class="st12" points="20,505.4 29.7,488.6 10.3,488.6 			"/>
			<polygon class="st12" points="10.9,511 0.9,493.7 -9.1,511 			"/>
			<polygon class="st12" points="154.1,439.3 153.7,438.6 153.4,439.3 			"/>
			<polygon class="st12" points="115.5,465.5 119.3,459 111.8,459 			"/>
			<polygon class="st12" points="102.2,475.5 96.4,465.5 90.6,475.5 			"/>
			<polygon class="st12" points="58.2,504.3 66.9,489.2 49.5,489.2 			"/>
			<polygon class="st12" points="49.2,511 39.1,493.7 29.1,511 			"/>
			<polygon class="st12" points="0.9,539.5 11.4,521.2 -9.6,521.2 			"/>
			<polygon class="st12" points="153.7,462.2 154.7,460.6 152.8,460.6 			"/>
			<polygon class="st12" points="137.2,473.6 134.6,469.3 132.1,473.6 			"/>
			<polygon class="st12" points="96.4,501.8 103,490.4 89.9,490.4 			"/>
			<polygon class="st12" points="85.9,510.2 77.3,495.4 68.8,510.2 			"/>
			<polygon class="st12" points="39.1,539.7 49.8,521.1 28.4,521.1 			"/>
			<polygon class="st12" points="31.1,544.7 20,525.6 9,544.7 			"/>
			<polygon class="st12" points="134.6,498.1 138,492.3 131.3,492.3 			"/>
			<polygon class="st12" points="121.2,508.5 115.5,498.7 109.9,508.5 			"/>
			<polygon class="st12" points="77.3,537.9 86.5,522 68.1,522 			"/>
			<polygon class="st12" points="68.6,544.3 58.2,526.4 47.9,544.3 			"/>
			<polygon class="st12" points="172.8,494.8 173.3,494 172.4,494 			"/>
			<polygon class="st12" points="156.3,506.7 153.7,502.3 151.2,506.7 			"/>
			<polygon class="st12" points="115.5,534.9 122.1,523.5 109,523.5 			"/>
			<polygon class="st12" points="104.8,543.2 96.4,528.6 88,543.2 			"/>
			<polygon class="st12" points="153.7,531.1 157,525.4 150.5,525.4 			"/>
			<polygon class="st12" points="139.7,541.3 134.6,532.5 129.5,541.3 			"/>
			<polygon class="st12" points="174.7,539.4 172.8,536.2 171,539.4 			"/>
		</g>
	</g>
</g>
</svg>
