<?xml version="1.0" encoding="utf-8"?>
<!-- Generator: Adobe Illustrator 20.0.0, SVG Export Plug-In . SVG Version: 6.00 Build 0)  -->
<svg version="1.1" id="Layer_1" xmlns="http://www.w3.org/2000/svg" xmlns:xlink="http://www.w3.org/1999/xlink" x="0px" y="0px"
	 viewBox="0 0 76.2 78.4" style="enable-background:new 0 0 76.2 78.4;" xml:space="preserve">
<style type="text/css">
	.st0{fill:none;stroke:#2D472D;stroke-width:4.5511;stroke-miterlimit:10;}
	.st1{fill:#2D472D;}
	.st2{fill:#2D472D;stroke:#FFFFFF;stroke-miterlimit:10;}
	.st3{fill:none;stroke:#FFFFFF;stroke-miterlimit:10;}
	.st4{fill:#D0D2D3;stroke:#FFFFFF;stroke-miterlimit:10;}
	.st5{fill:none;stroke:#FFFFFF;stroke-width:0.8382;stroke-miterlimit:10;}
	.st6{fill:#FFFFFF;}
	.st7{fill:none;stroke:#2D472D;stroke-width:4.3925;stroke-miterlimit:10;}
	.st8{fill:none;stroke:#2D472D;stroke-width:4.0272;stroke-miterlimit:10;}
</style>
<g>
	<g>
		<path class="st8" d="M71.9,12.5L71.9,12.5c-2.7-2.7-7-2.7-9.7,0L20.1,54.6l-2.6,12.3l12.3-2.6l42.1-42.1
			C74.6,19.5,74.6,15.2,71.9,12.5z"/>
		
			<rect x="54.3" y="20.3" transform="matrix(0.7071 0.7071 -0.7071 0.7071 34.3621 -36.4217)" class="st8" width="13.7" height="5.9"/>
		<polyline class="st8" points="20.1,54.6 28.6,55.8 29.8,64.3 		"/>
		<line class="st8" x1="58.5" y1="25.9" x2="28.6" y2="55.8"/>
	</g>
	<polyline class="st8" points="55.8,43.4 55.8,62.4 42.1,76 2.3,76 2.3,2.7 55.8,2.7 55.8,13.1 	"/>
	<line class="st8" x1="9.3" y1="13.3" x2="48.9" y2="13.3"/>
	<line class="st8" x1="9.3" y1="20.7" x2="48.9" y2="20.7"/>
	<line class="st8" x1="9.3" y1="28.7" x2="34.5" y2="28.7"/>
</g>
</svg>
