<?xml version="1.0" encoding="utf-8"?>
<!-- Generator: Adobe Illustrator 20.0.0, SVG Export Plug-In . SVG Version: 6.00 Build 0)  -->
<svg version="1.1" id="Layer_1" xmlns="http://www.w3.org/2000/svg" xmlns:xlink="http://www.w3.org/1999/xlink" x="0px" y="0px"
	 viewBox="0 0 70 70" style="enable-background:new 0 0 70 70;" xml:space="preserve">
<style type="text/css">
	.st0{fill:#2D472D;}
	.st1{fill:none;stroke:#2D472D;stroke-width:4.5511;stroke-miterlimit:10;}
	.st2{fill:none;stroke:#2D472D;stroke-width:3.9248;stroke-miterlimit:10;}
	.st3{fill:none;stroke:#2D472D;stroke-width:2;stroke-miterlimit:10;}
	.st4{fill:none;stroke:#2D472D;stroke-width:1.5023;stroke-miterlimit:10;}
	.st5{fill:#2D472D;stroke:#FFFFFF;stroke-miterlimit:10;}
	.st6{fill:none;stroke:#FFFFFF;stroke-miterlimit:10;}
	.st7{fill:#2D472D;stroke:#FFFFFF;stroke-width:0.7273;stroke-miterlimit:10;}
	.st8{fill:#D0D2D3;stroke:#FFFFFF;stroke-miterlimit:10;}
	.st9{fill:none;stroke:#FFFFFF;stroke-width:0.8382;stroke-miterlimit:10;}
	.st10{fill:#FFFFFF;}
	.st11{fill:none;stroke:#2D472D;stroke-width:4.3925;stroke-miterlimit:10;}
	.st12{fill:none;stroke:#2D472D;stroke-width:4.0272;stroke-miterlimit:10;}
	.st13{fill:none;stroke:#2D472D;stroke-width:3.4972;stroke-miterlimit:10;}
	.st14{fill:#E6E7E8;}
	.st15{opacity:0.5;}
	.st16{opacity:0.3;clip-path:url(#SVGID_2_);}
	.st17{fill:#7A7E80;}
	.st18{fill:none;stroke:#2D472D;stroke-width:3.2933;stroke-miterlimit:10;}
	.st19{fill:none;stroke:#FFFFFF;stroke-width:3.7377;stroke-miterlimit:10;}
	.st20{fill:#F04E3E;}
	.st21{fill:none;stroke:#FFFFFF;stroke-width:2.4518;stroke-miterlimit:10;}
	.st22{fill:#FFFFFF;stroke:#BBBDBF;stroke-width:3;stroke-miterlimit:10;}
	.st23{fill:#FFFFFF;stroke:#BBBDBF;stroke-width:10;stroke-miterlimit:10;}
	.st24{fill:none;stroke:#2D472D;stroke-width:6;stroke-linecap:round;stroke-linejoin:round;}
	.st25{fill:none;stroke:#2D472D;stroke-width:6;stroke-linecap:round;stroke-linejoin:round;stroke-dasharray:0,14.5683;}
	.st26{fill:none;stroke:#2D472D;stroke-width:3.2933;stroke-linecap:round;stroke-linejoin:round;stroke-miterlimit:10;}
	.st27{fill:none;stroke:#2D472D;stroke-width:3.1812;stroke-linecap:round;stroke-linejoin:round;stroke-miterlimit:10;}
	.st28{fill:none;stroke:#CDA618;stroke-width:3.6637;stroke-linecap:round;stroke-linejoin:round;stroke-miterlimit:10;}
	.st29{fill:#CDA618;}
	.st30{fill:none;stroke:#2D472D;stroke-width:2.6743;stroke-linecap:round;stroke-linejoin:round;stroke-miterlimit:10;}
	.st31{fill:none;stroke:#2D472D;stroke-miterlimit:10;}
	.st32{fill:none;stroke:#2D472D;stroke-width:3;stroke-miterlimit:10;}
	.st33{fill:none;stroke:#2D472D;stroke-width:4.2455;stroke-miterlimit:10;}
	.st34{fill:none;stroke:#2D472D;stroke-width:2.1225;stroke-miterlimit:10;}
	.st35{fill:#D1D3D4;}
	.st36{fill:#FBB040;}
	.st37{fill:#ED1C24;}
	.st38{fill:none;stroke:#2D472D;stroke-width:10.5733;stroke-miterlimit:10;}
	.st39{fill:none;stroke:#2D472D;stroke-width:6.8061;stroke-miterlimit:10;}
	.st40{fill:none;stroke:#2D472D;stroke-width:4.5057;stroke-miterlimit:10;}
	.st41{fill:none;stroke:#2D472D;stroke-width:16.8872;stroke-miterlimit:10;}
	.st42{fill:none;stroke:#2D472D;stroke-width:25.3309;stroke-miterlimit:10;}
	.st43{fill:none;stroke:#CCA518;stroke-width:3.8813;stroke-linecap:round;stroke-linejoin:round;stroke-miterlimit:10;}
	.st44{fill:#CCA518;}
	.st45{fill:none;stroke:#CCA518;stroke-width:3.6647;stroke-linecap:round;stroke-miterlimit:10;}
	.st46{fill:none;stroke:#CCA518;stroke-width:3.6647;stroke-linecap:round;stroke-linejoin:round;stroke-miterlimit:10;}
	.st47{fill:none;stroke:#CCA518;stroke-width:26.5694;stroke-miterlimit:10;}
	.st48{fill:none;stroke:#CCA518;stroke-width:5.5507;stroke-linecap:round;stroke-linejoin:round;stroke-miterlimit:10;}
	.st49{fill:none;stroke:#CCA518;stroke-width:12.489;stroke-linecap:round;stroke-linejoin:round;stroke-miterlimit:10;}
	.st50{fill:none;stroke:#CCA518;stroke-width:3.9579;stroke-linecap:round;stroke-linejoin:round;stroke-miterlimit:10;}
	.st51{fill:none;stroke:#CCA518;stroke-width:4.8568;stroke-linecap:round;stroke-linejoin:round;stroke-miterlimit:10;}
	.st52{fill:none;stroke:#CCA518;stroke-width:3.8341;stroke-linecap:round;stroke-linejoin:round;stroke-miterlimit:10;}
	.st53{fill:none;stroke:#CCA518;stroke-width:3.569;stroke-linecap:round;stroke-linejoin:round;stroke-miterlimit:10;}
	.st54{fill:#CCA518;stroke:#2D472D;stroke-width:3.569;stroke-linecap:round;stroke-linejoin:round;stroke-miterlimit:10;}
	.st55{fill:none;stroke:#2D472D;stroke-width:18.1509;stroke-miterlimit:10;}
	.st56{fill:none;stroke:#2D472D;stroke-width:13.2017;stroke-miterlimit:10;}
	.st57{fill:none;stroke:#2D472D;stroke-width:13.2567;stroke-miterlimit:10;}
	.st58{fill:none;stroke:#2D472D;stroke-width:8.0671;stroke-miterlimit:10;}
	.st59{fill:none;stroke:#2D472D;stroke-width:18.899;stroke-miterlimit:10;}
	.st60{fill:none;stroke:#2D472D;stroke-width:18.9778;stroke-miterlimit:10;}
	.st61{fill:none;stroke:#2D472D;stroke-width:11.5485;stroke-miterlimit:10;}
	.st62{fill:none;stroke:#2D472D;stroke-width:25.984;stroke-miterlimit:10;}
	.st63{fill:none;stroke:#2D472D;stroke-width:14.4594;stroke-miterlimit:10;}
	.st64{fill:none;stroke:#2D472D;stroke-width:19.7465;stroke-miterlimit:10;}
	.st65{fill:none;stroke:#2D472D;stroke-width:3.8096;stroke-miterlimit:10;}
	.st66{fill:none;stroke:#2D472D;stroke-width:2.5398;stroke-miterlimit:10;}
	.st67{fill:none;stroke:#2D472D;stroke-width:1.2699;stroke-miterlimit:10;}
	.st68{fill:none;stroke:#2D472D;stroke-width:4.0454;stroke-miterlimit:10;}
</style>
<g>
	<polygon class="st68" points="24.1,14.9 10.2,15.4 3.8,27.7 11.2,39.4 12,39.8 53.4,61.6 66.3,37.1 24.9,15.3 	"/>
	<ellipse transform="matrix(0.4653 -0.8851 0.8851 0.4653 -15.0248 25.9381)" class="st3" cx="14" cy="25.4" rx="3.5" ry="3.5"/>
	<g>
		<path class="st0" d="M26.8,28c-0.1-0.1-0.3-0.1-0.4-0.2c-0.1,0-0.3-0.1-0.4-0.1c-0.1,0-0.2,0-0.3,0.1c-0.1,0-0.2,0.1-0.2,0.2
			c-0.1,0.2-0.1,0.3-0.1,0.4c0,0.1,0.1,0.3,0.2,0.4c0.1,0.1,0.3,0.3,0.5,0.5c0.2,0.2,0.4,0.4,0.7,0.7c0.3,0.3,0.6,0.7,0.8,1.1
			c0.2,0.4,0.4,0.7,0.5,1.1c0.1,0.4,0.1,0.8,0.1,1.2c0,0.4-0.2,0.8-0.4,1.2c-0.3,0.5-0.6,0.9-1,1.2c-0.4,0.3-0.9,0.5-1.4,0.6
			c-0.5,0.1-1,0.1-1.6,0.1c-0.6-0.1-1.1-0.2-1.6-0.5c-0.4-0.2-0.8-0.5-1.1-0.8c-0.3-0.3-0.6-0.7-0.8-1.1s-0.3-0.8-0.4-1.2
			c-0.1-0.4-0.1-0.9,0-1.3l1,0c0.2,0,0.3,0,0.5,0c0.2,0,0.3,0.1,0.4,0.2c0.2,0.1,0.4,0.3,0.5,0.4c0.1,0.2,0.2,0.4,0.3,0.5
			c0.1,0.2,0.2,0.4,0.3,0.5c0.1,0.2,0.3,0.3,0.5,0.4c0.1,0.1,0.3,0.1,0.5,0.2c0.2,0,0.4,0.1,0.6,0.1c0.2,0,0.4-0.1,0.5-0.1
			c0.2-0.1,0.3-0.2,0.4-0.4c0.1-0.2,0.1-0.3,0.1-0.5s-0.1-0.3-0.2-0.5c-0.1-0.2-0.3-0.3-0.4-0.5c-0.2-0.2-0.3-0.4-0.5-0.6
			c-0.3-0.3-0.6-0.7-0.8-1c-0.3-0.3-0.5-0.7-0.6-1.1c-0.2-0.4-0.2-0.8-0.2-1.2c0-0.4,0.1-0.9,0.4-1.4c0.2-0.5,0.6-0.8,0.9-1.1
			c0.4-0.3,0.8-0.4,1.2-0.5c0.4-0.1,0.9-0.1,1.4,0c0.5,0.1,0.9,0.2,1.3,0.5c0.3,0.2,0.6,0.4,0.8,0.6c0.2,0.3,0.4,0.5,0.6,0.8
			s0.3,0.6,0.4,1c0.1,0.3,0.2,0.7,0.3,1l-1.1,0.2c-0.2,0-0.4,0.1-0.6,0c-0.2,0-0.4-0.1-0.6-0.2c-0.2-0.1-0.3-0.2-0.4-0.3
			c-0.1-0.1-0.2-0.2-0.3-0.3c-0.1-0.1-0.2-0.2-0.2-0.3C27,28.1,26.9,28.1,26.8,28z"/>
		<path class="st0" d="M36.4,30.1l2,1.1L37.5,44L36,43.2c-0.2-0.1-0.3-0.2-0.4-0.3c-0.1-0.1-0.2-0.3-0.3-0.4
			c-0.1-0.1-0.1-0.3-0.2-0.5s-0.1-0.3,0-0.5l0.1-1.4L31,37.9l-1.1,0.9c-0.1,0.1-0.3,0.2-0.4,0.2c-0.2,0.1-0.3,0.1-0.5,0.1
			c-0.2,0-0.3,0-0.5,0c-0.2,0-0.3-0.1-0.5-0.2l-1.5-0.8L36.4,30.1z M33,36.2l2.2,1.2l0.2-2.6c0-0.1,0-0.2,0-0.3c0-0.1,0-0.2,0.1-0.3
			c0-0.1,0-0.2,0.1-0.2c0,0.1-0.1,0.1-0.2,0.2c0,0.1-0.1,0.1-0.2,0.2c-0.1,0.1-0.2,0.1-0.2,0.2L33,36.2z"/>
		<path class="st0" d="M38.5,44.5L44,34.1l2.4,1.2L42,43.5l4.1,2.2L45,47.9L38.5,44.5z"/>
		<path class="st0" d="M53.4,52.4l-6.9-3.6L52,38.3l6.9,3.6l-1.2,2.2l-4.5-2.4l-1,1.8l3.7,1.9l-1.2,2.2l-3.7-1.9l-1,1.9l4.5,2.4
			L53.4,52.4z"/>
	</g>
</g>
</svg>
